<?xml version="1.0" encoding="utf-8"?>
<!-- Generator: Adobe Illustrator 19.2.1, SVG Export Plug-In . SVG Version: 6.00 Build 0)  -->
<svg version="1.1" id="Layer_1" xmlns="http://www.w3.org/2000/svg" xmlns:xlink="http://www.w3.org/1999/xlink" x="0px" y="0px"
	 viewBox="0 0 477.7 335.1" style="enable-background:new 0 0 477.7 335.1;" xml:space="preserve">
<style type="text/css">
	.st0{fill:#FFFFFF;}
</style>
<g>
	<path class="st0" d="M448.1,291.2c0-93,0-185.2,0-279.3c5.1,3.5,10.2,5.5,12.8,9.2c2.6,3.7,2.6,9.2,3.8,14.2
		c8.5,1.2,12.6,6.1,12.8,16.8c0.2,14.5,0.1,29,0.1,43.5c0,70.8,0,141.6-0.1,212.4c0,11.1-6.8,19.1-15.8,18.4
		c-4.6-0.3-9.2-1.4-13.8-1.9c-30.4-3.2-60.8-7.7-91.3-9.2c-19.5-1-39.1,2.4-58.7,3.9c-2.5,0.2-5,0.4-7.4,0.7
		c-3.6,0.5-6.5,1.1-9.4,4.6c-2.8,3.5-8.3,5.5-13,6.7c-19.9,5-39.8,5-59.7-0.2c-5.6-1.5-11.3-3.1-14.3-9c-0.4-0.7-1.9-1.1-2.9-1.2
		c-29.6-3.3-59.2-7.7-89.1-4.9c-24,2.3-47.9,5.6-71.8,8.5c-4.8,0.6-9.5,1.6-14.3,2c-8.5,0.7-15.9-7.2-15.9-16.9
		C0,290.5,0,271.3,0,252.2c0-65.3,0-130.6,0-195.9c0-3,0.2-6,0.7-8.9c1.5-8,4.9-11,13.1-12.1c0.1-0.7,0.3-1.6,0.2-2.3
		c-1.5-9.9,3.7-15.8,12.3-18.5c13-4,26.1-8.4,39.4-10.1c20.9-2.6,42.1-4,63.2-4.2c36.6-0.2,71.4,8.6,104.7,23.5
		c3.2,1.4,5.8,1.7,9.2,0.2c22-10.2,45.2-16.5,69-20.8c1.3-0.2,2.6,0,4.8,0c0,4.6,0.2,9.2-0.2,13.7c-0.1,0.9-2.2,2-3.6,2.3
		c-21.7,3.9-43,9.4-62.7,19.1c-8.8,4.3-15.3,3.8-24.1-0.2c-39.6-18-81.4-24.7-124.9-21.4c-20.6,1.5-41.1,3.3-61,9.3
		C29.5,29,29.6,29.1,29.6,40c0,69.1,0,138.3,0,207.4c0,13.5,0,27,0,40.5c0,0.9,0.2,1.9,0.4,2.9c10.4-3,20.5-6.2,30.8-8.8
		c59-15.1,116.4-9.3,172.4,13.5c4.1,1.7,7.5,1.7,11.6,0c39.5-16.2,80.5-24,123.3-21.3c26.3,1.6,51.9,7.6,76.8,16.2
		C445.6,290.5,446.4,290.7,448.1,291.2z"/>
	<path class="st0" d="M331,177.5c0-11.8,0-23.5,0-35.3c0-45.1,0.1-90.3-0.1-135.4c0-4.7,1.4-5.6,5.8-5.9c30.4-2.1,60.5,0,90.5,5.1
		c1,0.2,2,0.3,2.9,0.6c0.9,0.2,1.9,0.6,3.1,1c0,56.8,0,113.5,0,170.1c-16.6-16.8-33.1-33.5-49.4-50.1
		c-17.9,17.7-34.7,34.2-51.4,50.7C331.9,177.9,331.5,177.7,331,177.5z M419.4,55.3c-7-1-13.3-2-19.7-2.7c-4-0.4-6.4-2-8.1-6
		c-2.5-6-5.7-11.7-9-18.2c-3.7,7.4-6.7,13.9-10.1,20.1c-0.9,1.6-3,3-4.7,3.4c-7.1,1.4-14.3,2.3-21.3,3.4c4.8,5.2,9.4,10.4,14.3,15.2
		c2.3,2.2,3.1,4.1,2.4,7.4c-1.5,6.8-2.4,13.8-3.6,21.5c7.1-3.7,13.1-7.2,19.5-10.1c2-0.9,5.2-0.9,7.2,0c6.4,2.9,12.5,6.4,19.5,10.1
		c-1.3-7.4-2.2-14-3.6-20.5c-0.7-3.6-0.3-6.2,2.6-8.8C409.7,65.7,414.1,60.7,419.4,55.3z"/>
	<path class="st0" d="M231,167.5c0-31.1,0-62.3,0-93.4c0-4.5,0.8-8.5,5.7-10c5.3-1.7,9.8,2.2,9.9,8.6c0.1,11.3,0.1,22.6,0.1,34
		c0,51.1,0,102.2-0.1,153.3c0,1,0.1,2,0,3c-0.4,5-3.3,8-7.8,7.9c-4.4-0.1-7.6-3.1-7.8-8c-0.2-7-0.1-14-0.1-21
		C231,217.1,231,192.3,231,167.5L231,167.5z"/>
	<path class="st0" d="M210.7,139.8c-0.1,5.7-5.5,8.2-11.8,6.3c-14.7-4.4-29.5-9-44.5-12.3c-17.5-3.8-35.5-2.7-53.2-0.5
		c-14.3,1.8-28.5,4.6-42.7,7c-4.9,0.8-8.7-1.1-9.7-5.3c-1-4.5,1-8.3,5.9-9.4c9.1-2,18.2-4.1,27.4-5.2c15-1.8,30.1-3.7,45.1-4.1
		c26.2-0.6,51.4,5.2,75.7,14.8C208.4,133.2,210.8,136,210.7,139.8z"/>
	<path class="st0" d="M342,204.9c31.6,0.8,55.4,4.3,79,9.2c5.4,1.1,8.4,5.2,7.5,9.4c-1.1,4.7-5.1,6.6-10.9,5.5
		c-21.7-4.3-43.4-7.9-65.6-8.4c-24.5-0.5-47.9,4.2-70.5,13.1c-0.9,0.4-1.8,0.7-2.8,1.1c-5.3,2.1-9.7,0.9-11.5-3.3
		c-2-4.4-0.1-8.8,5.7-10.8c10.3-3.7,20.6-7.7,31.2-9.9C319,207.7,334.2,206.1,342,204.9z"/>
	<path class="st0" d="M210.7,181.5c0,7.4-5.5,11-11.1,8.8c-14.7-6-29.7-11.1-45.4-12.5c-14.7-1.3-29.6-2.3-44.2-1.2
		c-17.5,1.4-34.8,5.1-52.1,7.9c-4.2,0.7-8-1.5-9-5.2c-1.2-4.5,0.7-8.5,5.5-9.6c9.4-2.1,18.8-4.4,28.3-5.5c16-1.8,32.1-3.9,48.2-3.9
		c25.5-0.1,50.1,5.5,73.5,15.6C207.2,177.2,209.3,180.2,210.7,181.5z"/>
	<path class="st0" d="M127.8,220.5c-23.2,0.2-46,4.1-68.6,8.6c-5.4,1.1-9.3-0.8-10.3-5c-1.2-4.8,1.3-8.8,6.7-9.8
		c14.4-2.6,28.7-5.7,43.2-7.1c15.2-1.4,30.5-1.8,45.8-1.1c21.2,1,41.5,6.7,61,15.1c4.7,2,6.2,6,4.4,10.1s-5.7,5.8-10.4,3.8
		c-17.3-7.2-35.2-11.9-53.8-13.8C139.8,220.8,133.7,220.8,127.8,220.5z"/>
	<path class="st0" d="M125.9,66.2c28.1,0.3,53.7,5.3,78.2,15.6c6,2.5,7.9,6.1,5.9,10.6c-2,4.6-6,5.8-11.8,3.5
		c-26.1-10.8-53.2-16-81.3-13.8c-19.3,1.6-38.4,5.3-57.6,8.2c-5.4,0.8-9.3-0.8-10.4-5c-1.3-4.7,1.2-8.9,7.1-10
		c15-2.7,30.1-5.3,45.2-7.3C109.8,66.9,118.7,66.7,125.9,66.2z"/>
	<path class="st0" d="M316.6,163c0,5,0.1,9.4-0.1,13.8c0,0.8-1.5,1.9-2.6,2.2c-12.3,3.9-24.6,7.7-36.9,11.5c-4,1.2-8.2-0.3-9.8-3.7
		c-1.7-3.7-0.3-8.3,3.7-10.2C285.2,170,300.3,166.1,316.6,163z"/>
	<path class="st0" d="M316.3,117.7c0,6.8,0,11.6,0,16.4c-8.6,2.4-17.2,4.8-25.7,7.3c-4.3,1.3-8.4,3-12.6,4.6c-5,1.9-9.3,0.5-11-3.5
		c-1.7-4.3-0.1-8.7,4.9-10.4C286.4,127.2,300.9,122.7,316.3,117.7z"/>
	<path class="st0" d="M316.3,69.3c0,5.4,0,10.1,0,14.9c-9.3,2.6-18.6,5.1-27.7,7.9c-4,1.2-7.7,3.2-11.6,4.5
		c-4.1,1.4-8.2-0.3-9.8-3.8c-1.7-3.7-0.6-8.2,3.2-9.9C284.9,76.4,300.2,72,316.3,69.3z"/>
</g>
</svg>
