<?xml version="1.0" encoding="utf-8"?>
<!-- Generator: Adobe Illustrator 19.2.1, SVG Export Plug-In . SVG Version: 6.00 Build 0)  -->
<svg version="1.1" id="Layer_1" xmlns="http://www.w3.org/2000/svg" xmlns:xlink="http://www.w3.org/1999/xlink" x="0px" y="0px"
	 viewBox="0 0 47.6 48" style="enable-background:new 0 0 47.6 48;" xml:space="preserve">
<style type="text/css">
	.st0{fill:#FFFFFF;}
</style>
<g>
	<path class="st0" d="M15.5,20.1c1.1,0,2-0.9,2-2v-7.8c0-3.5,2.8-6.3,6.3-6.3s6.3,2.8,6.3,6.3v7.8c0,1.1,0.9,2,2,2c1.1,0,2-0.9,2-2
		v-7.8C34.2,4.6,29.5,0,23.8,0c-5.7,0-10.3,4.6-10.3,10.3v7.8C13.5,19.2,14.4,20.1,15.5,20.1z"/>
	<path class="st0" d="M46.8,15.6H36.2v2.5c0,2.2-1.8,4-4,4s-4-1.8-4-4v-2.5h-8.6v2.5c0,2.2-1.8,4-4,4s-4-1.8-4-4v-2.5H0.8
		c-0.6,0-0.9,0.4-0.8,1l7,28.5c0.4,1.6,2.1,2.9,3.8,2.9h26c1.7,0,3.3-1.3,3.8-2.9l7-28.5C47.7,16.1,47.3,15.6,46.8,15.6z"/>
</g>
</svg>
