<?xml version="1.0" encoding="utf-8"?>
<!-- Generator: Adobe Illustrator 19.2.1, SVG Export Plug-In . SVG Version: 6.00 Build 0)  -->
<svg version="1.1" id="Layer_1" xmlns="http://www.w3.org/2000/svg" xmlns:xlink="http://www.w3.org/1999/xlink" x="0px" y="0px"
	 viewBox="0 0 24 24" style="enable-background:new 0 0 24 24;" xml:space="preserve">
<style type="text/css">
	.st0{fill:#8A7A61;}
</style>
<path class="st0" d="M10.7,18.6l6.8,5.3c0.1,0.1,0.2,0.1,0.2,0.1c0.2,0,0.2-0.1,0.2-0.3v-5c0-0.4,0.2-0.6,0.5-0.6l2.5,0
	c2.2,0,3-1.1,3-2s0-13,0-14s-0.7-2-3-2H3C0.8,0,0,1,0,2s0,13,0,14s0.8,2,3,2h6C9,18,10.3,18,10.7,18.6z"/>
</svg>
