<svg xmlns="http://www.w3.org/2000/svg" width="328.58" height="112.71" viewBox="0 0 328.58 112.71"><title>Vector Smart Object1</title><text transform="translate(123.55 88.03)" style="font-size:98.71633911132812px;fill:#4a373d;font-family:Birch Std"><tspan style="letter-spacing:-1px">P</tspan><tspan x="30.9" y="0">UBLIUS</tspan></text><path d="M141.12,152.31c-14.51,0-21.62,5.13-21.62,5.13,12.61-.25,19.45,5,21.62,13.25,2.17-8.28,9-13.5,21.62-13.25C162.73,157.45,155.63,152.31,141.12,152.31Z" transform="translate(-85.99 -151.91)" style="fill:#4a373d"/><path d="M141.12,178.16s-2.77-18.72-18.32-18.31c-18.66.49-27.65-.24-27.07-7.94-0.66,6.46,1.45,11.76,20.11,11C130.37,162.4,137.55,169.55,141.12,178.16Z" transform="translate(-85.99 -151.91)" style="fill:#4a373d"/><path d="M141.12,178.16s2.77-18.72,18.32-18.31c18.66,0.49,27.65-.24,27.07-7.94,0.66,6.46-1.45,11.76-20.11,11C151.86,162.4,144.68,169.55,141.12,178.16Z" transform="translate(-85.99 -151.91)" style="fill:#4a373d"/><path d="M141.12,180.14c0.25-.25-6.91-14.65-25.2-14.07-15.24.48-28.72-2.25-29.8,1.39s5,7.7,5,7.7-1.33,21.78,11.6,28.57S128,205.57,130.1,201s7.38-14.16,11-14.16C141.12,181.55,141.12,180.14,141.12,180.14ZM121,201.67c-8.28,1.74-21.95-.66-24.43-13.75s8.56-16,12.65-16.32c14.76-1.2,21.55,5.38,22.3,9.94S129.27,199.94,121,201.67Z" transform="translate(-85.99 -151.91)" style="fill:#4a373d"/><path d="M141.12,186.85c3.64,0,8.95,9.61,11,14.16s14.49,9.52,27.41,2.73,11.6-28.57,11.6-28.57,6-4.06,5-7.7-14.52-1.66-29.76-1.93c-19-.33-25.48,14.35-25.23,14.6C141.12,180.14,141.12,181.55,141.12,186.85Zm9.61-5.3c0.75-4.56,8.11-10.19,21.26-9.36,5,0.31,16.18,2.65,13.69,15.74s-16.15,15.49-24.43,13.75S150,186.1,150.73,181.55Z" transform="translate(-85.99 -151.91)" style="fill:#4a373d"/><path d="M94.9,198.28s-3.4,31.56,23.44,38.43c-6-3.48-7.79-12-7.79-12s4.89,5.05,9.86,6.79c-4.89-7.37-4.51-8.2-6.85-15.49S96.47,211.61,94.9,198.28Z" transform="translate(-85.99 -151.91)" style="fill:#4a373d"/><path d="M187.44,198.28s3.4,31.56-23.44,38.43c6-3.48,7.79-12,7.79-12s-4.89,5.05-9.86,6.79c4.89-7.37,4.51-8.2,6.85-15.49S185.86,211.61,187.44,198.28Z" transform="translate(-85.99 -151.91)" style="fill:#4a373d"/><path d="M109.56,208.63s11,3,17.89-1.56a31.34,31.34,0,0,0,9.94-10.62s-0.47,3.69,3.73,9.44c4.37-5.92,3.56-9.44,3.56-9.44s7.12,14.54,25.84,13.15c-4.8,3.83-3.23,8.13-6.54,14.84s-9.69,13.67-9.69,13.67,7.33-3.31,7.64-3.56-1.68,5.22-1.68,5.22l8.44-3.06s-2,7.21-25.25,8.7-29.88-6.63-29.88-6.63,2.13,1,7.27-.17c-0.83-2.24-2.32-6-2.15-5.71s7.79,1.74,7.79,1.74a26.69,26.69,0,0,1-8.2-13.17C116.1,213.1,113.78,210.62,109.56,208.63Z" transform="translate(-85.99 -151.91)" style="fill:#4a373d"/><circle cx="35.84" cy="33.28" r="7.91" style="fill:#4a373d"/><path d="M121.12,199.47a13.16,13.16,0,0,1-12.48-17.34,13.17,13.17,0,1,0,24.6,9.34A13.17,13.17,0,0,1,121.12,199.47Z" transform="translate(-85.99 -151.91)" style="fill:#4a373d"/><path d="M121.12,199.47a13.16,13.16,0,0,1-12.48-17.34,13.17,13.17,0,1,0,24.6,9.34A13.17,13.17,0,0,1,121.12,199.47Z" transform="translate(-85.99 -151.91)" style="fill:#4a373d"/><path d="M162,199.47a13.16,13.16,0,0,0,12.48-17.34,13.17,13.17,0,1,1-24.6,9.34A13.17,13.17,0,0,0,162,199.47Z" transform="translate(-85.99 -151.91)" style="fill:#4a373d"/><circle cx="74.78" cy="33.28" r="7.91" style="fill:#4a373d"/></svg>