<?xml version="1.0" encoding="utf-8"?>
<!-- Generator: Adobe Illustrator 19.2.1, SVG Export Plug-In . SVG Version: 6.00 Build 0)  -->
<svg version="1.1" id="Layer_1" xmlns="http://www.w3.org/2000/svg" xmlns:xlink="http://www.w3.org/1999/xlink" x="0px" y="0px"
	 viewBox="0 0 28.9 25.4" style="enable-background:new 0 0 28.9 25.4;" xml:space="preserve">
<style type="text/css">
	.st0{fill:#E06316;}
</style>
<g>
	<path class="st0" d="M26.5,2.4C23.7-0.5,19.1-0.8,16,1.6c0.3,0.5,0.6,0.9,0.8,1.4c0.5,0.9,1,1.8,1.5,2.6c0.5,0.9,1,1.8,1.4,2.7
		l0.6,1.1L19.1,10c-2.2,1.3-4.5,2.4-6.8,3.6c0.6,2.1,1.2,4.2,1.8,6.4c0.2,0.6,0.3,1.3,0.4,1.9c0.1,0.6,0.3,1.3,0.4,1.9
		c0.1,0.5,0.2,0.9,0.3,1.4c0.2-0.2,0.5-0.4,0.7-0.6l10.7-10.7C29.7,10.7,29.7,5.6,26.5,2.4z"/>
	<path class="st0" d="M12.8,22.5c-0.3-0.6-0.6-1.2-0.8-1.8c-1-2.4-2-4.9-2.9-7.4l-0.4-1.2l1.2-0.6c2.3-1.2,4.6-2.3,7-3.4
		c-0.2-0.5-0.4-1-0.6-1.6c-0.4-0.9-0.7-1.9-1-2.9C15,3.3,14.9,3,14.8,2.6l-0.2,0.2L14,2.4c-3.2-3.2-8.5-3.2-11.6,0
		c-3.2,3.2-3.1,8.3,0.1,11.5l10.8,10.7c0.3,0.3,0.6,0.5,1,0.8c-0.2-0.4-0.4-0.7-0.6-1.1C13.3,23.7,13,23.1,12.8,22.5z"/>
</g>
</svg>
