<?xml version="1.0" encoding="utf-8"?>
<!-- Generator: Adobe Illustrator 19.2.1, SVG Export Plug-In . SVG Version: 6.00 Build 0)  -->
<svg version="1.1" id="Layer_1" xmlns="http://www.w3.org/2000/svg" xmlns:xlink="http://www.w3.org/1999/xlink" x="0px" y="0px"
	 viewBox="0 0 265.5 512.1" style="enable-background:new 0 0 265.5 512.1;" xml:space="preserve">
<style type="text/css">
	.st0{fill:#FF6300;}
</style>
<path class="st0" d="M265.5,255.4C265.5,255.3,265.5,255.3,265.5,255.4c-0.2-2.6-1.2-5.1-3.2-6.9L8.3,2.9C6,0.7,2.9-0.2,0,0v24.2
	l239.9,231.9L0,487.9v24.1c0.3,0,0.7,0,1,0c2.6,0,5.3-1,7.3-3l254-245.4c2-1.9,3-4.4,3.2-6.9c0,0,0,0,0-0.1c0-0.2,0-0.5,0-0.7
	C265.5,255.8,265.5,255.6,265.5,255.4z"/>
</svg>
