<?xml version="1.0" encoding="utf-8"?>
<!-- Generator: Adobe Illustrator 19.2.1, SVG Export Plug-In . SVG Version: 6.00 Build 0)  -->
<svg version="1.1" id="Layer_1" xmlns="http://www.w3.org/2000/svg" xmlns:xlink="http://www.w3.org/1999/xlink" x="0px" y="0px"
	 viewBox="0 0 114.4 115" style="enable-background:new 0 0 114.4 115;" xml:space="preserve">
<style type="text/css">
	.st0{fill:#FF6300;}
</style>
<g>
	<g>
		<path class="st0" d="M0,0v115h114.4V0H0z M86.7,45.7c0,0.6,0,1.2,0,1.9c0,19.2-14,41.3-39.5,41.3c-7.8,0-15.1-2.4-21.3-6.5
			c1.1,0.1,2.2,0.2,3.3,0.2c6.5,0,12.5-2.3,17.2-6.2c-6.1-0.1-11.2-4.3-13-10.1c0.8,0.2,1.7,0.3,2.6,0.3c1.3,0,2.5-0.2,3.7-0.5
			c-6.3-1.3-11.1-7.2-11.1-14.2c0-0.1,0-0.1,0-0.2c1.9,1.1,4,1.7,6.3,1.8c-3.7-2.6-6.2-7-6.2-12.1c0-2.7,0.7-5.1,1.9-7.3
			c6.8,8.8,17.1,14.5,28.6,15.2C59.1,48.1,59,47,59,45.9c0-8,6.2-14.5,13.9-14.5c4,0,7.6,1.8,10.1,4.6c3.2-0.7,6.1-1.9,8.8-3.5
			c-1,3.4-3.2,6.2-6.1,8c2.8-0.4,5.5-1.1,8-2.3C91.8,41.1,89.4,43.7,86.7,45.7z"/>
	</g>
</g>
</svg>
