<?xml version="1.0" encoding="utf-8"?>
<!-- Generator: Adobe Illustrator 19.2.1, SVG Export Plug-In . SVG Version: 6.00 Build 0)  -->
<svg version="1.1" id="Layer_1" xmlns="http://www.w3.org/2000/svg" xmlns:xlink="http://www.w3.org/1999/xlink" x="0px" y="0px"
	 viewBox="0 0 354.3 408.9" style="enable-background:new 0 0 354.3 408.9;" xml:space="preserve">
<g>
	<path class="st0" d="M259.2,0c0,16.5,0,32.9,0,50c-2.3,0-4.3,0-6.2,0c-59.3,0-118.6,0-177.9,0c-16.4,0-25.5,8.7-25.5,24.9
		c-0.1,47.6,0,95.3,0,142.9c0,38.3-0.1,76.6,0,114.9c0,3.8,0.3,7.7,1.4,11.3c3,9.4,11.2,15,21.1,15c60.1,0,120.3,0,180.4,0
		c2,0,4,0,6.7,0c0,16.8,0,33.4,0,50c-80.7,0-161.3,0-242,0C4.3,404.6-0.3,395.6,0,382c0.7-29.4,0.2-58.9,0.2-88.4
		c0-89.9,0-179.8,0.1-269.7c0-4.4,1.2-9.1,2.9-13.2C5.9,4.3,12.3,2.3,18.3,0C98.6,0,178.9,0,259.2,0z"/>
	<path class="st0" d="M267.1,167c0-5.8,0-11.1,0-16.4c0-2.8-0.1-5.7,0-8.5c0.2-4.2-0.7-9.2,4.1-11.5c5.1-2.5,8.9,1.3,12.3,4.3
		c19.4,17.2,38.7,34.5,58.1,51.8c1.9,1.7,3.8,3.2,5.7,4.9c9.3,8.3,9.6,20.2,0.5,28.6c-7.9,7.4-16,14.6-24.1,21.7
		c-13.7,12.1-27.4,24.2-41.2,36.3c-1.2,1.1-2.5,2.1-4,2.9c-5.9,3.2-10.9,0.6-11.2-6.2c-0.3-7.6-0.2-15.3-0.2-23c0-1.8,0-3.6,0-6
		c-2.3,0-4.1,0-5.8,0c-27.6,0-55.3-0.3-82.9,0.1c-12.7,0.2-24.1-9.8-23.2-23.3c0.8-11.4,0.5-23,0-34.5c-0.4-9.8,8.1-21.3,21.5-21.3
		c28.1-0.1,56.3,0,84.4,0C262.9,167,264.6,167,267.1,167z"/>
</g>
</svg>
